<svg xmlns="http://www.w3.org/2000/svg" viewBox="0 0 24 21.818"><defs><style>.a{fill:#d2d3dc;fill-rule:evenodd;}</style></defs><path class="a" d="M726,286.818h-5.3v-7.67c0-2.008-.83-3.378-2.654-3.378a2.677,2.677,0,0,0-2.533,1.816,3.376,3.376,0,0,0-.114,1.211v8.021h-5.255s.068-13.587,0-14.822h5.255v2.326c.31-1.017,1.99-2.469,4.669-2.469,3.325,0,5.937,2.132,5.937,6.723v8.241Zm-21.175-16.676h-.034A2.586,2.586,0,0,1,702,267.573a2.853,2.853,0,1,1,2.825,2.569ZM702.605,272h4.678v14.822h-4.678V272Z" transform="translate(-702 -265)"/></svg>