<svg xmlns="http://www.w3.org/2000/svg" viewBox="0 0 81 81.076"><defs><style>.a{fill:#ff332f;}</style></defs><g transform="translate(-563.846 -3892)"><path class="a" d="M6.762,59.2l7.4,3.473a28.377,28.377,0,0,0,3.548,7.7A27.925,27.925,0,0,0,39.6,82.753l-3.4,7.171,4.152,5.662A40.475,40.475,0,0,1,6.988,77.468,39.631,39.631,0,0,1,1.1,63.352Z" transform="translate(563.577 3877.49)"/><path class="a" d="M59.2,87.893l3.473-7.4a27.582,27.582,0,0,0,20-25.44l7.171,3.4L95.51,54.3A40.475,40.475,0,0,1,77.393,87.666a39.631,39.631,0,0,1-14.116,5.888Z" transform="translate(549.336 3878.691)"/><path class="a" d="M36.31,6.762l-3.473,7.4a27.582,27.582,0,0,0-20,25.44L5.662,36.2,0,40.354A40.677,40.677,0,0,1,18.117,6.988,39.631,39.631,0,0,1,32.234,1.1Z" transform="translate(563.846 3891.73)"/><path class="a" d="M87.868,36.31l-7.4-3.4a28.377,28.377,0,0,0-3.548-7.7A27.836,27.836,0,0,0,55.03,12.833l3.4-7.171L54.2,0A40.475,40.475,0,0,1,87.566,18.117a39.631,39.631,0,0,1,5.888,14.116Z" transform="translate(550.561 3892)"/></g></svg>