<?xml version="1.0" encoding="utf-8"?>
<!-- Generator: Adobe Illustrator 22.1.0, SVG Export Plug-In . SVG Version: 6.00 Build 0)  -->
<svg version="1.1" id="Layer_1" xmlns="http://www.w3.org/2000/svg" xmlns:xlink="http://www.w3.org/1999/xlink" x="0px" y="0px"
	 viewBox="0 0 334.8 334.8" style="enable-background:new 0 0 334.8 334.8;" xml:space="preserve">
<style type="text/css">
	.st0{fill:#99D5C5;}
</style>
<path class="st0" d="M303.6,264.6L303.6,264.6c-46.6,65.5-133.3,88.5-206.3,54.8l-2.2-8c6.8,3.4,13.8,6.3,21.1,8.7
	c20,6.7,41.2,9.3,62.2,7.8c31.3-2.2,61.3-13.4,86.3-32.3c14.3-10.8,26.7-24,36.7-38.9L303.6,264.6L303.6,264.6z M320.4,235.2
	L320.4,235.2l-2.6-9.7c1-2.6,2-5.3,2.9-8c6.7-20,9.3-41.2,7.8-62.2c-2.2-31.3-13.4-61.3-32.3-86.3c-6.4-8.5-13.6-16.3-21.6-23.3
	c-2.1-1.9-4.3-3.7-6.5-5.5l-2.2-8.1c4.4,3.2,8.6,6.6,12.6,10.1c16.3,14.5,29.7,32.1,39.2,51.7c14.2,29.2,19.7,61.9,15.7,94.1
	c-1.4,10.9-3.8,21.7-7.3,32.1C324.5,225.2,322.6,230.3,320.4,235.2L320.4,235.2z M238.5,21.5L238.5,21.5c-6.6-3.2-13.3-6-20.3-8.3
	c-20-6.7-41.2-9.3-62.2-7.8c-31.3,2.2-61.3,13.4-86.3,32.3C56.1,47.9,44.2,60.3,34.5,74.3l-7.5,2c4.6-7.1,9.7-13.8,15.3-20.1
	C56.8,39.8,74.3,26.5,94,17c29.2-14.2,61.9-19.7,94.1-15.7c16.8,2.1,33.3,6.7,48.7,13.8L238.5,21.5L238.5,21.5z M68.1,302.1
	L68.1,302.1c-4.1-3-8.1-6.2-11.9-9.6C39.8,278,26.5,260.4,17,240.8C2.7,211.6-2.7,178.9,1.3,146.7c1.4-10.9,3.8-21.7,7.3-32.1
	c1.1-3.2,2.3-6.5,3.6-9.7l6.4-1.7c-1.7,4.1-3.3,8.3-4.7,12.4c-6.7,20-9.3,41.2-7.8,62.2c2.2,31.3,13.4,61.3,32.3,86.3
	c6.4,8.5,13.6,16.3,21.6,23.3c1.8,1.6,3.7,3.2,5.6,4.8L68.1,302.1L68.1,302.1z"/>
</svg>
