<svg xmlns="http://www.w3.org/2000/svg" viewBox="0 0 24 24"><defs><style>.a{fill:#d2d3dc;fill-rule:evenodd;}</style></defs><path class="a" d="M212.819,184H201.325A1.325,1.325,0,0,1,200,182.675V161.325A1.324,1.324,0,0,1,201.325,160h21.351A1.324,1.324,0,0,1,224,161.325v21.351A1.325,1.325,0,0,1,222.675,184H216.56v-9.294h3.12l.467-3.622H216.56v-2.312c0-1.049.291-1.763,1.795-1.763h1.918v-3.24a25.639,25.639,0,0,0-2.795-.143c-2.765,0-4.659,1.688-4.659,4.788v2.671h-3.128v3.622h3.128V184Z" transform="translate(-200 -160)"/></svg>