<?xml version="1.0" encoding="UTF-8"?>
<!DOCTYPE svg PUBLIC "-//W3C//DTD SVG 1.1//EN" "http://www.w3.org/Graphics/SVG/1.1/DTD/svg11.dtd">
<svg xmlns="http://www.w3.org/2000/svg" version="1.1" width="126px" height="126px" style="shape-rendering:geometricPrecision; text-rendering:geometricPrecision; image-rendering:optimizeQuality; fill-rule:evenodd; clip-rule:evenodd" xmlns:xlink="http://www.w3.org/1999/xlink">
<g><path style="opacity:0.845" fill="#fe332e" d="M 30.5,10.5 C 41.6049,11.6934 52.7715,12.36 64,12.5C 73.0648,12.6195 82.0648,11.9529 91,10.5C 92.825,10.9434 94.6583,11.2767 96.5,11.5C 96.8271,13.4878 97.1604,15.4878 97.5,17.5C 96.848,49.1924 96.1813,80.8591 95.5,112.5C 94.9747,113.192 94.3081,113.692 93.5,114C 81.4839,114.749 69.4839,114.583 57.5,113.5C 49.6691,114.189 41.8358,114.855 34,115.5C 32.2358,115.456 30.5691,115.122 29,114.5C 28.8333,111.167 28.6667,107.833 28.5,104.5C 29.6044,81.2639 29.6044,58.0972 28.5,35C 28.7864,26.7755 29.453,18.6088 30.5,10.5 Z M 81.5,55.5 C 80.8855,51.4333 79.5522,47.6 77.5,44C 69.5434,40.8799 61.5434,40.7132 53.5,43.5C 53.1808,48.646 53.8475,53.646 55.5,58.5C 58.2794,59.6461 60.9461,60.9795 63.5,62.5C 64.7422,60.2672 66.0755,58.1005 67.5,56C 68.7932,55.51 70.1266,55.3433 71.5,55.5C 71.8221,60.4438 71.8221,65.2771 71.5,70C 69.8333,70.6667 68.1667,70.6667 66.5,70C 63.4534,66.8742 59.9534,66.0409 56,67.5C 55.0153,69.3659 54.5153,71.3659 54.5,73.5C 55,77.5 55.5,81.5 56,85.5C 59.7357,87.7954 63.569,87.7954 67.5,85.5C 68.086,85.7093 68.586,86.0426 69,86.5C 75.8882,83.7917 79.3882,78.7917 79.5,71.5C 81.0453,70.5481 82.712,70.2148 84.5,70.5C 85.9623,78.0088 85.2957,85.3421 82.5,92.5C 76.5841,93.9357 70.5841,94.9357 64.5,95.5C 59.5,94.1667 54.5,94.1667 49.5,95.5C 46.1539,94.8295 42.8206,94.1628 39.5,93.5C 39.2865,91.8561 39.6198,90.3561 40.5,89C 45.8141,90.0818 49.3141,87.9151 51,82.5C 50.9892,75.758 51.1559,68.9247 51.5,62C 51.5663,56.1022 51.0663,50.2689 50,44.5C 46.0228,44.2238 41.8562,43.5571 37.5,42.5C 38.2458,41.2638 38.5792,39.9305 38.5,38.5C 46.7265,37.6866 54.8932,37.6866 63,38.5C 68.0816,36.8473 73.2483,36.0139 78.5,36C 79.646,36.6449 80.646,37.4783 81.5,38.5C 82.7182,44.1462 83.7182,49.8129 84.5,55.5C 83.5,55.5 82.5,55.5 81.5,55.5 Z"/></g>
</svg>
