<?xml version="1.0" encoding="UTF-8"?>
<svg xmlns="http://www.w3.org/2000/svg" xmlns:xlink="http://www.w3.org/1999/xlink" width="200px" height="200px" viewBox="0 0 200 200" version="1.1">
<defs>
<filter id="alpha" filterUnits="objectBoundingBox" x="0%" y="0%" width="100%" height="100%">
  <feColorMatrix type="matrix" in="SourceGraphic" values="0 0 0 0 1 0 0 0 0 1 0 0 0 0 1 0 0 0 1 0"/>
</filter>
<mask id="mask0">
  <g filter="url(#alpha)">
<rect x="0" y="0" width="200" height="200" style="fill:rgb(0%,0%,0%);fill-opacity:0.843137;stroke:none;"/>
  </g>
</mask>
<clipPath id="clip1">
  <rect x="0" y="0" width="200" height="200"/>
</clipPath>
<g id="surface5" clip-path="url(#clip1)">
<path style=" stroke:none;fill-rule:evenodd;fill:rgb(99.607843%,20%,18.039216%);fill-opacity:1;" d="M 48.414062 16.667969 C 66.039062 18.5625 83.765625 19.617188 101.585938 19.839844 C 115.976562 20.03125 130.261719 18.972656 144.445312 16.667969 C 147.339844 17.371094 150.25 17.898438 153.175781 18.253906 C 153.695312 21.410156 154.222656 24.582031 154.761719 27.777344 C 153.726562 78.082031 152.667969 128.347656 151.585938 178.570312 C 150.753906 179.667969 149.695312 180.464844 148.414062 180.953125 C 129.339844 182.140625 110.292969 181.878906 91.269531 180.160156 C 78.839844 181.253906 66.40625 182.308594 53.96875 183.332031 C 51.167969 183.261719 48.523438 182.734375 46.03125 181.746094 C 45.765625 176.457031 45.503906 171.164062 45.238281 165.871094 C 46.992188 128.992188 46.992188 92.21875 45.238281 55.554688 C 45.691406 42.5 46.75 29.539062 48.414062 16.667969 Z M 129.363281 88.09375 C 128.390625 81.640625 126.273438 75.554688 123.015625 69.839844 C 110.386719 64.890625 97.6875 64.625 84.921875 69.046875 C 84.414062 77.214844 85.472656 85.152344 88.09375 92.855469 C 92.507812 94.675781 96.738281 96.792969 100.792969 99.207031 C 102.765625 95.664062 104.882812 92.222656 107.144531 88.890625 C 109.195312 88.109375 111.3125 87.847656 113.492188 88.09375 C 114.003906 95.941406 114.003906 103.613281 113.492188 111.109375 C 110.847656 112.167969 108.199219 112.167969 105.554688 111.109375 C 100.71875 106.148438 95.164062 104.828125 88.890625 107.144531 C 87.324219 110.105469 86.53125 113.277344 86.507812 116.667969 C 87.300781 123.015625 88.09375 129.363281 88.890625 135.714844 C 94.820312 139.359375 100.902344 139.359375 107.144531 135.714844 C 108.074219 136.046875 108.867188 136.574219 109.523438 137.300781 C 120.457031 133.003906 126.011719 125.066406 126.191406 113.492188 C 128.644531 111.980469 131.289062 111.453125 134.128906 111.90625 C 136.449219 123.824219 135.390625 135.464844 130.953125 146.824219 C 121.5625 149.105469 112.039062 150.691406 102.382812 151.585938 C 94.445312 149.472656 86.507812 149.472656 78.570312 151.585938 C 73.261719 150.523438 67.96875 149.464844 62.699219 148.414062 C 62.359375 145.804688 62.886719 143.421875 64.285156 141.269531 C 72.722656 142.988281 78.277344 139.546875 80.953125 130.953125 C 80.933594 120.25 81.199219 109.402344 81.746094 98.414062 C 81.851562 89.050781 81.058594 79.792969 79.363281 70.636719 C 73.050781 70.195312 66.4375 69.136719 59.523438 67.460938 C 60.707031 65.5 61.238281 63.382812 61.109375 61.109375 C 74.167969 59.820312 87.132812 59.820312 100 61.109375 C 108.066406 58.488281 116.265625 57.164062 124.601562 57.144531 C 126.421875 58.167969 128.007812 59.488281 129.363281 61.109375 C 131.296875 70.074219 132.886719 79.066406 134.128906 88.09375 C 132.539062 88.09375 130.953125 88.09375 129.363281 88.09375 Z M 129.363281 88.09375 "/>
</g>
</defs>
<g id="surface1">
<use xlink:href="#surface5" mask="url(#mask0)"/>
</g>
</svg>
